<svg xmlns="http://www.w3.org/2000/svg" viewBox="0 0 800 800">
<g fill="#84371B">
  <path d="M339.5,362.8c-60.9,0-123.3-21.2-180.4-62c-16.1-11.5-19.8-33.9-8.3-50c11.5-16.1,33.9-19.8,50-8.3
    c58.8,42.1,123.4,57.6,181.7,43.6c53.8-12.9,98.3-50.4,128.6-108.6c9.2-17.5,30.8-24.4,48.3-15.2c17.5,9.1,24.3,30.8,15.2,48.3
    C534.5,287.8,473.8,338,399.2,355.8C379.7,360.5,359.7,362.8,339.5,362.8z"/>
  <path d="M349.8,503.9c-86.8,0-171.7-30.1-240.1-86.4c-15.3-12.6-17.5-35.1-4.9-50.4c12.6-15.3,35.1-17.5,50.4-4.9
    c68.6,56.5,157.8,80.5,244.8,65.9c87.5-14.7,162.2-66.1,210.3-144.8c10.3-16.9,32.4-22.2,49.3-11.9c16.9,10.3,22.2,32.4,11.9,49.2
    C671.5,417.2,579.3,480.5,471.1,498.7C430.2,505.4,389.4,503.9,349.8,503.9z"/>
  <path d="M352.3,642.6c-109.9,0-220.6-37.7-306.1-105.9c-15.5-12.3-18-34.9-5.6-50.3c12.3-15.5,34.9-18,50.3-5.6
    C178.7,550.8,297.6,583,409,566.9c115.6-16.7,217.2-83.4,293.8-193.1c11.3-16.2,33.7-20.2,49.9-8.8c16.2,11.3,20.2,33.7,8.8,49.9
    C650,574.4,513.9,624.2,419.3,637.8C397.1,641,374.7,642.6,352.3,642.6z"/>
</g>
</svg>
