<?xml version="1.0" encoding="utf-8"?>
<svg version="1.1" id="Layer_1" xmlns="http://www.w3.org/2000/svg" xmlns:xlink="http://www.w3.org/1999/xlink" x="0px" y="0px"
	 viewBox="0 0 800 800" enable-background="new 0 0 800 800" xml:space="preserve">
<g>
	<path fill="#84371B" d="M400,747.6c-92.8,0-180.1-36.2-245.8-101.8C88.6,580.1,52.4,492.8,52.4,400c0-92.8,36.2-180.1,101.8-245.8
		C219.9,88.6,307.2,52.4,400,52.4s180.1,36.2,245.8,101.8c65.7,65.7,101.8,152.9,101.8,245.8c0,92.8-36.2,180.1-101.8,245.8
		C580.1,711.4,492.8,747.6,400,747.6z"/>
	<path fill="#A55325" d="M400,67.4c44.9,0,88.5,8.8,129.4,26.1c39.6,16.7,75.2,40.7,105.7,71.3c30.6,30.6,54.5,66.1,71.3,105.7
		c17.3,41,26.1,84.5,26.1,129.4s-8.8,88.5-26.1,129.4c-16.7,39.6-40.7,75.2-71.3,105.7c-30.6,30.6-66.1,54.5-105.7,71.3
		c-41,17.3-84.5,26.1-129.4,26.1s-88.5-8.8-129.4-26.1c-39.6-16.7-75.2-40.7-105.7-71.3c-30.6-30.6-54.5-66.1-71.3-105.7
		c-17.3-41-26.1-84.5-26.1-129.4s8.8-88.5,26.1-129.4c16.7-39.6,40.7-75.2,71.3-105.7c30.6-30.6,66.1-54.5,105.7-71.3
		C311.5,76.2,355.1,67.4,400,67.4 M400,37.4C199.7,37.4,37.4,199.7,37.4,400S199.7,762.6,400,762.6S762.6,600.3,762.6,400
		S600.3,37.4,400,37.4L400,37.4z"/>
</g>
<g>
	<g>
		<path fill="#FFFFFF" d="M358.3,374.2c-41.7,0-84.4-14.5-123.5-42.5c-11-7.9-13.6-23.2-5.7-34.2c7.9-11,23.2-13.6,34.2-5.7
			c40.3,28.8,84.4,39.4,124.4,29.9c36.8-8.8,67.3-34.5,88-74.3c6.3-12,21.1-16.7,33.1-10.4c12,6.3,16.7,21.1,10.4,33.1
			c-27.5,52.8-69.1,87.1-120.1,99.3C385.8,372.7,372.1,374.2,358.3,374.2z"/>
	</g>
	<g>
		<path fill="#FFFFFF" d="M365.3,470.8c-59.4,0-117.6-20.6-164.3-59.1c-10.5-8.6-11.9-24.1-3.3-34.5c8.6-10.5,24.1-12,34.5-3.3
			c47,38.6,108,55.1,167.6,45.1c59.9-10.1,111-45.3,143.9-99.1c7.1-11.6,22.2-15.2,33.7-8.1c11.6,7.1,15.2,22.2,8.1,33.7
			C545,411.6,481.9,454.8,407.8,467.3C393.7,469.7,379.5,470.8,365.3,470.8z"/>
	</g>
	<g>
		<path fill="#FFFFFF" d="M367.1,565.8c-75.2,0-151-25.8-209.5-72.5c-10.6-8.4-12.3-23.9-3.9-34.5c8.5-10.6,23.9-12.3,34.5-3.9
			c60.1,48,141.4,70,217.7,59C485,502.5,554.5,456.8,607,381.8c7.8-11.1,23-13.8,34.1-6c11.1,7.8,13.8,23,6,34.1
			c-76.4,109.2-169.6,143.3-234.3,152.6C397.7,564.7,382.4,565.8,367.1,565.8z"/>
	</g>
</g>
</svg>
